<?xml version="1.0" standalone="no"?>
<!DOCTYPE svg PUBLIC "-//W3C//DTD SVG 20010904//EN"
 "http://www.w3.org/TR/2001/REC-SVG-20010904/DTD/svg10.dtd">
<svg version="1.0" xmlns="http://www.w3.org/2000/svg"
 width="1280.000000pt" height="1280.000000pt" viewBox="0 0 1280.000000 1280.000000"
 preserveAspectRatio="xMidYMid meet">
<metadata>
Created by potrace 1.15, written by Peter Selinger 2001-2017
</metadata>
<g transform="translate(0.000000,1280.000000) scale(0.100000,-0.100000)"
fill="#000000" stroke="none">
<path d="M5070 12119 c-1304 -42 -2309 -176 -2663 -356 -64 -32 -134 -97 -142
-132 -8 -35 81 -754 100 -806 21 -57 45 -231 46 -327 0 -46 4 -105 9 -133 l7
-50 3 45 c1 29 12 -25 30 -150 28 -194 32 -255 10 -143 -6 32 -13 63 -16 68
-11 26 10 -117 41 -270 45 -224 44 -221 119 -800 43 -330 67 -556 71 -665 4
-91 10 -192 15 -225 l7 -60 3 90 c2 86 3 78 36 -170 18 -143 32 -264 30 -270
-1 -5 -11 26 -20 70 -21 95 -24 107 -25 80 -1 -26 33 -218 65 -360 32 -144
150 -1135 160 -1340 5 -97 10 -146 14 -125 l6 35 7 -45 c13 -86 37 -284 36
-300 -1 -8 -5 -4 -9 10 l-8 25 -1 -25 c0 -14 11 -81 24 -150 22 -109 81 -586
170 -1365 14 -121 30 -256 35 -300 16 -119 205 -1734 235 -2000 54 -475 107
-911 116 -945 16 -66 140 -120 395 -174 326 -68 956 -132 1494 -151 96 -4 189
-8 205 -10 17 -2 237 -7 490 -11 1376 -20 2720 96 3055 264 107 53 112 65 140
327 40 379 150 1338 164 1435 8 52 24 185 36 295 31 291 179 1580 190 1650 5
33 16 132 25 220 14 135 146 1278 231 2000 13 116 67 579 119 1030 100 870
295 2543 370 3185 25 212 43 395 40 408 -31 126 -360 256 -910 361 -612 117
-1357 192 -2430 246 -473 24 -1604 31 -2125 14z m1465 -961 l190 -189 -270 6
c-402 9 -837 24 -1139 40 -148 8 -282 15 -298 15 l-29 0 21 28 c12 15 73 87
137 159 l116 133 311 3 c171 1 415 1 541 -1 l230 -4 190 -190z m380 182 c437
-16 565 -22 565 -30 0 -3 -79 -81 -175 -173 l-176 -167 -146 0 -147 0 -190
190 -191 190 100 0 c55 0 217 -5 360 -10z m-1787 -39 c-18 -21 -78 -89 -133
-150 l-100 -111 -75 6 c-41 3 -144 12 -229 19 l-154 13 -106 106 c-58 58 -103
107 -101 109 11 10 603 43 803 45 l129 2 -34 -39z m2707 -6 c55 -3 114 -8 131
-11 l32 -5 -34 -87 c-18 -48 -41 -112 -49 -143 l-16 -56 -151 -6 c-83 -4 -228
-7 -322 -7 l-171 0 170 165 170 165 70 -5 c39 -2 115 -7 170 -10z m-3614 -102
c52 -53 90 -98 84 -99 -11 -4 -435 42 -439 48 -12 21 -45 113 -41 117 4 4 198
25 281 30 14 1 51 -31 115 -96z m4169 57 c364 -34 1022 -118 1037 -133 5 -5
-324 -44 -527 -62 -443 -40 -930 -65 -930 -48 0 21 43 150 70 210 l28 62 54
-5 c29 -3 150 -14 268 -24z m-4603 -50 c19 -45 20 -50 5 -50 -35 0 -391 54
-386 59 7 7 249 38 310 40 l50 1 21 -50z m2961 -222 c8 -17 -7 -5 -68 59 l-65
67 65 -59 c36 -33 67 -63 68 -67z m-4278 -253 c33 -17 33 -18 50 -210 30 -360
125 -807 213 -1006 13 -29 13 -40 4 -60 -33 -64 -87 11 -151 206 -30 93 -44
173 -92 520 -56 409 -73 565 -60 565 4 0 20 -7 36 -15z m149 -70 l85 -34 134
-263 c161 -315 182 -369 189 -468 5 -68 2 -84 -32 -180 -20 -58 -53 -157 -72
-220 -20 -63 -39 -119 -43 -123 -12 -13 -84 84 -121 160 -92 196 -175 544
-213 898 -25 236 -27 265 -19 265 4 0 46 -16 92 -35z m7725 -604 c-38 -324
-70 -589 -71 -587 -5 5 -28 653 -27 746 2 109 19 189 66 313 25 65 41 93 63
107 16 11 31 17 33 15 2 -2 -27 -269 -64 -594z m-7409 509 c83 -20 220 -50
305 -65 85 -16 158 -31 162 -34 6 -5 -90 -169 -209 -356 -35 -56 -41 -60 -79
-63 -37 -3 -44 1 -80 40 -51 56 -296 535 -268 524 10 -4 87 -25 169 -46z
m7375 23 c0 -5 -13 -33 -28 -63 -35 -71 -65 -79 -88 -25 -8 21 -14 39 -12 40
5 5 112 53 121 54 4 1 7 -2 7 -6z m-157 -85 c17 -68 19 -157 3 -215 -28 -112
-150 -329 -367 -654 -78 -117 -91 -129 -135 -129 -23 0 -24 3 -24 64 0 54 6
77 44 157 82 176 139 378 174 613 l17 119 125 32 c154 40 157 40 163 13z
m-6548 -64 c61 -9 115 -17 121 -19 8 -2 2 -39 -17 -113 -41 -162 -55 -337 -40
-507 l12 -137 -48 -66 c-47 -67 -170 -202 -184 -202 -11 0 -164 240 -208 328
-75 149 -75 206 1 338 78 137 239 394 246 394 4 0 57 -7 117 -16z m6219 -36
c-15 -115 -57 -313 -82 -393 -37 -116 -94 -253 -100 -237 -13 40 49 352 105
527 42 130 49 145 68 145 12 0 14 -9 9 -42z m-64 23 c0 -5 -6 -24 -14 -43 -52
-123 -128 -449 -145 -621 -11 -114 -24 -140 -120 -241 -62 -64 -168 -146 -189
-146 -14 0 -133 177 -148 219 -19 52 -17 134 4 194 11 29 101 176 205 332
l187 280 92 16 c114 20 128 21 128 10z m476 -27 c14 6 15 1 9 -41 -5 -27 -11
-82 -14 -123 -6 -72 -6 -74 -18 -42 -7 17 -18 32 -26 32 -12 0 -13 9 -5 48 5
26 6 72 2 102 l-6 55 21 -19 c12 -11 27 -16 37 -12z m-6362 1 l38 -6 -6 -62
c-17 -151 -80 -372 -148 -520 -31 -68 -33 -70 -39 -42 -13 58 -9 259 7 363 12
86 54 246 70 274 2 3 12 5 22 3 9 -2 34 -7 56 -10z m309 -34 c92 -10 169 -20
171 -22 2 -2 -86 -139 -195 -304 -224 -337 -244 -360 -322 -352 -27 2 -52 8
-58 14 -6 6 5 42 30 99 71 164 127 367 146 527 9 68 -12 64 228 38z m5215
-103 c-116 -176 -240 -340 -294 -387 -60 -53 -104 -62 -148 -30 -18 13 -93 98
-166 189 -74 91 -151 185 -172 209 -21 24 -37 46 -35 48 2 2 82 10 178 18 203
18 632 65 638 71 2 2 21 4 42 4 l38 0 -81 -122z m-4525 42 l248 -18 242 -238
c133 -132 249 -248 258 -259 51 -64 67 -141 45 -218 -17 -60 -29 -75 -220
-288 -71 -79 -207 -238 -303 -354 -200 -242 -238 -275 -321 -275 -41 0 -66 6
-96 24 -34 20 -229 220 -531 546 -200 215 -215 237 -215 324 0 79 32 153 118
281 42 60 121 178 177 260 55 83 116 172 135 198 l35 48 90 -6 c50 -4 202 -15
338 -25z m687 -40 c221 -9 257 -13 268 -28 26 -33 105 -198 133 -277 l28 -80
-31 -32 c-44 -46 -90 -65 -134 -57 -47 9 -158 84 -264 180 -83 75 -320 304
-320 310 0 1 15 1 33 -1 17 -3 147 -9 287 -15z m3060 -141 c273 -326 288 -351
276 -459 -8 -73 -43 -139 -117 -227 l-60 -73 -52 27 c-207 104 -423 319 -550
546 -50 90 -113 238 -122 291 l-7 33 184 10 c100 5 212 10 248 11 l65 2 135
-161z m-2337 93 l27 -26 -127 -128 c-70 -70 -131 -128 -134 -128 -4 0 -17 28
-29 63 -13 34 -44 103 -69 152 -25 50 -47 93 -49 96 -2 4 77 4 175 2 175 -5
179 -6 206 -31z m1666 -40 c28 -87 112 -264 166 -348 20 -31 35 -57 33 -59
-20 -17 -76 -35 -110 -35 -92 0 -125 29 -365 323 l-56 68 64 65 63 64 91 0 90
0 24 -78z m-481 6 l53 -61 -173 -175 c-194 -195 -233 -222 -329 -222 -43 0
-69 7 -108 28 -44 23 -318 270 -445 401 -39 40 -39 41 -21 61 17 19 31 20 429
23 226 1 440 3 476 5 l65 2 53 -62z m142 27 l-34 -35 -28 27 c-15 15 -28 30
-28 35 0 4 28 8 62 8 l62 0 -34 -35z m2590 -74 c29 -55 40 -160 50 -471 10
-303 9 -336 -10 -509 -24 -208 -50 -304 -106 -388 -35 -51 -82 -83 -123 -83
-64 0 -192 117 -211 193 -6 23 -30 107 -52 187 -69 240 -58 340 56 507 29 43
115 184 191 313 76 129 145 243 153 253 20 22 39 22 52 -2z m-3602 -216 c144
-137 233 -229 244 -253 34 -72 21 -172 -31 -237 -26 -33 -348 -335 -357 -335
-5 0 -88 79 -185 176 l-176 176 5 67 c4 60 -9 224 -24 293 -6 24 9 43 141 177
82 83 150 151 152 151 3 0 107 -97 231 -215z m1098 -2 c200 -233 220 -273 182
-363 -21 -50 -116 -166 -248 -303 l-113 -118 -149 148 c-84 84 -157 166 -168
189 -26 53 -26 144 0 202 13 28 79 104 191 218 95 96 174 174 176 174 1 0 60
-66 129 -147z m-4600 61 c24 -6 41 -4 76 11 15 6 15 3 1 -37 -10 -29 -13 -64
-10 -106 4 -56 3 -63 -12 -57 -9 4 -30 9 -47 12 -31 5 -32 7 -36 68 -3 42 -12
79 -31 115 l-27 52 31 -26 c17 -14 42 -29 55 -32z m3044 -49 c-35 -36 -69 -65
-75 -65 -9 1 124 129 135 130 2 0 -25 -29 -60 -65z m-140 -125 c0 -6 -16 -18
-35 -27 -27 -13 -36 -24 -42 -52 -9 -49 -9 -88 0 -138 l7 -42 -62 6 c-35 3
-79 1 -99 -4 l-35 -10 0 81 c1 44 -2 92 -6 106 l-7 25 78 -3 c81 -4 113 5 170
49 27 22 31 23 31 9z m3089 -66 c-6 -32 -8 -79 -5 -103 5 -38 4 -42 -12 -36
-55 21 -69 18 -116 -25 l-46 -43 21 48 c17 38 20 63 17 126 l-3 78 35 -5 c19
-3 53 1 75 8 22 8 41 14 42 13 2 -1 -2 -28 -8 -61z m-5939 -1 c34 -23 35 -25
155 -212 122 -189 122 -176 3 -235 -152 -77 -268 -68 -392 28 -18 15 -18 18
13 108 47 135 115 271 151 302 37 31 38 31 70 9z m2878 -163 l-3 -65 -30 39
c-39 52 -41 113 -5 171 l25 40 8 -60 c4 -33 6 -89 5 -125z m2021 98 l69 0 -10
-28 c-5 -16 -8 -63 -6 -105 2 -64 1 -74 -12 -69 -46 19 -80 24 -124 18 -45 -6
-48 -5 -41 12 4 11 9 46 12 79 5 55 2 64 -24 100 l-30 40 49 -24 c37 -18 64
-24 117 -23z m161 23 c0 -4 40 -49 89 -99 97 -98 211 -188 315 -246 l66 -37
-111 -132 c-60 -73 -113 -131 -116 -130 -3 1 -65 86 -139 188 -172 240 -190
295 -138 424 14 37 34 55 34 32z m-4250 -66 c-24 -46 -26 -121 -6 -169 l14
-34 -30 9 c-30 8 -80 3 -109 -12 -15 -7 -17 2 -21 79 -3 48 -9 96 -13 106 -8
17 -5 19 25 13 40 -8 100 6 132 32 12 11 24 18 25 17 2 -1 -6 -20 -17 -41z
m3065 34 c35 -1 74 2 86 6 19 6 21 4 15 -11 -14 -36 -19 -122 -8 -153 l11 -31
-58 7 c-33 3 -79 3 -104 -1 -41 -6 -50 -13 -88 -64 -24 -31 -77 -88 -118 -127
l-75 -70 83 90 c96 103 156 190 165 238 3 19 0 54 -8 81 l-15 48 25 -6 c14 -4
54 -7 89 -7z m-4407 -164 c23 -60 47 -137 55 -170 18 -72 28 -160 17 -148 -18
19 -133 450 -115 432 2 -2 21 -53 43 -114z m1070 -245 c-71 -135 -52 -136
-151 6 l-56 81 50 49 c28 27 76 82 107 122 l56 74 28 -108 28 -107 -62 -117z
m69 288 c-3 -7 -5 -2 -5 12 0 14 2 19 5 13 2 -7 2 -19 0 -25z m5324 -21 c33
-22 146 -173 136 -183 -2 -2 -37 -12 -78 -20 -117 -25 -358 -2 -345 33 3 7 29
42 57 78 36 44 69 73 103 90 62 31 84 31 127 2z m-3175 -42 c20 -8 54 -29 75
-46 45 -35 44 -27 8 -171 -62 -251 -251 -524 -456 -660 -143 -96 -343 -175
-484 -193 l-55 -7 -12 40 c-26 85 -8 170 50 245 18 23 62 76 98 117 37 41 127
147 202 235 198 234 354 403 391 422 66 34 130 40 183 18z m3638 -49 c4 -32 3
-72 -4 -98 -12 -43 -95 -188 -108 -188 -13 1 -113 175 -103 178 18 6 135 99
165 131 17 17 33 31 37 31 4 0 10 -24 13 -54z m56 -42 c14 -103 13 -111 -12
-117 -12 -4 -23 -5 -24 -4 -2 1 2 35 8 75 9 53 9 81 0 109 -10 33 -10 35 4 21
9 -8 20 -46 24 -84z m-2480 25 c19 -12 105 -91 190 -176 l155 -154 -185 -180
c-102 -98 -203 -188 -226 -199 -53 -26 -135 -26 -194 1 -31 14 -92 68 -198
176 -147 150 -152 157 -135 174 60 57 257 228 306 266 148 114 215 135 287 92z
m2564 -1 c-4 -12 -10 -56 -13 -98 l-7 -75 -12 78 c-17 111 -17 117 14 117 22
0 24 -3 18 -22z m-6861 -55 l37 -53 -21 -57 c-12 -32 -25 -62 -29 -67 -13 -14
-30 61 -37 159 -6 98 -6 98 50 18z m5276 37 c47 -34 138 -146 242 -298 71
-103 71 -103 52 -125 -11 -12 -64 -73 -119 -136 -106 -122 -163 -161 -234
-161 -69 1 -109 31 -292 222 l-177 185 155 154 c85 85 169 162 187 171 19 10
55 17 88 18 47 0 63 -5 98 -30z m-4074 -50 c28 -40 32 -49 14 -32 -14 12 -36
41 -49 65 -28 51 -16 40 35 -33z m-1270 -17 c0 -43 3 -93 7 -110 6 -26 4 -33
-7 -33 -9 0 -21 -12 -27 -27 -11 -25 -12 -20 -19 57 -4 47 -12 98 -18 113 -14
35 -14 40 -1 32 17 -10 49 5 55 26 4 10 7 19 8 19 1 0 2 -35 2 -77z m1227 3
c92 -75 674 -689 698 -737 20 -39 41 -169 27 -169 -15 0 -142 43 -193 66 -100
44 -222 131 -325 231 -142 138 -254 308 -338 516 -36 88 -38 97 -23 110 47 40
90 35 154 -17z m-1327 -108 c37 -123 45 -225 28 -344 -6 -42 -12 -14 -40 196
-30 228 -37 300 -28 275 3 -5 20 -63 40 -127z m3709 -218 c-149 -144 -355
-326 -381 -336 -61 -26 -205 -11 -227 24 -2 4 16 32 41 62 130 157 222 340
273 545 l9 40 157 -153 157 -154 -29 -28z m-2840 189 l74 -111 -50 -107 c-27
-58 -84 -185 -125 -281 -82 -191 -109 -230 -158 -230 -37 0 -62 24 -132 130
-55 83 -197 322 -263 443 l-43 79 16 57 c9 31 21 69 26 84 l11 27 44 -34 c131
-99 289 -95 452 14 33 21 62 39 66 39 4 1 41 -49 82 -110z m266 68 c0 -21 127
-275 175 -348 25 -39 44 -77 41 -84 -9 -24 -73 -27 -119 -7 -49 23 -72 47
-157 166 l-63 89 52 104 c45 91 71 120 71 80z m5043 2 c133 -35 250 -31 412
16 17 5 30 -10 80 -95 33 -55 59 -104 58 -108 -8 -23 -423 -508 -448 -524 -65
-39 -139 -14 -200 68 -56 76 -238 362 -235 371 3 14 234 292 243 293 4 0 45
-10 90 -21z m796 -81 c5 -13 26 -76 46 -141 l38 -119 -26 -26 c-30 -29 -79
-34 -103 -10 -9 8 -40 57 -69 108 l-54 93 32 45 c51 70 119 95 136 50z m-6862
-86 c-8 -8 -20 -11 -27 -7 -16 10 7 35 27 28 13 -5 13 -7 0 -21z m5 -69 c10 3
13 -11 13 -57 0 -33 3 -79 7 -100 6 -30 4 -36 -4 -28 -20 20 -46 14 -51 -10
-2 -13 -6 9 -7 47 -2 58 -4 47 -12 -65 -8 -122 -12 -151 -21 -139 -3 3 9 216
18 319 1 19 3 41 4 49 1 11 5 10 21 -4 10 -9 25 -15 32 -12z m295 -415 c125
-201 142 -238 150 -322 5 -61 -10 -205 -26 -234 -4 -7 -65 106 -149 275 -197
400 -242 521 -242 644 0 36 3 69 7 72 3 4 40 -55 81 -131 41 -75 122 -212 179
-304z m673 269 c83 -123 108 -221 78 -308 -6 -19 -60 -107 -119 -196 -59 -89
-127 -194 -150 -234 l-43 -72 -23 29 c-54 66 -102 150 -114 196 -22 94 17 214
177 547 l88 183 23 -28 c13 -16 50 -68 83 -117z m3903 16 c271 -275 322 -369
254 -471 -28 -43 -394 -432 -406 -432 -15 0 -338 374 -364 423 -26 46 -28 60
-24 117 2 36 11 79 20 95 13 26 377 395 389 395 3 0 61 -57 131 -127z m1829
54 c95 -146 108 -248 48 -367 -26 -52 -349 -565 -392 -623 -12 -15 -22 0 -92
135 -77 148 -80 155 -84 234 -4 72 -1 89 21 135 13 30 66 104 117 164 51 61
145 174 208 253 63 78 117 142 121 142 3 0 27 -33 53 -73z m-2697 -311 c32
-64 34 -148 5 -210 -14 -30 -76 -96 -196 -211 l-174 -167 -128 120 c-229 216
-242 235 -242 334 0 83 33 126 234 313 l179 167 149 -149 c98 -98 157 -165
173 -197z m1799 112 c65 -100 131 -204 145 -232 32 -62 33 -124 3 -182 -21
-42 -105 -152 -178 -233 l-39 -43 -142 165 c-78 91 -149 180 -158 197 -9 18
-19 55 -22 84 -8 86 20 143 149 294 62 73 115 132 118 132 3 0 59 -82 124
-182z m1244 -78 c85 -276 123 -475 104 -555 l-9 -40 -23 75 c-28 91 -84 241
-140 375 -41 97 -42 102 -38 190 3 50 10 103 17 119 l12 30 17 -30 c10 -16 37
-90 60 -164z m-122 142 c-8 -16 -18 -63 -22 -105 l-7 -76 -27 6 c-24 4 -32 -1
-55 -33 -15 -22 -24 -30 -21 -19 18 52 28 123 24 170 l-4 53 30 -4 c20 -3 41
2 61 15 17 11 31 20 33 20 1 1 -4 -12 -12 -27z m474 -118 c-35 -119 -121 -357
-145 -404 -27 -53 -57 -33 -90 60 -16 45 -95 338 -95 353 0 4 17 -6 38 -22 54
-44 106 -63 149 -55 49 9 112 73 143 146 36 83 36 44 0 -78z m-6254 50 c19 -3
47 -4 62 -1 l28 6 -1 -67 c0 -37 4 -84 8 -105 8 -37 7 -38 -13 -27 -12 6 -45
11 -73 11 l-52 0 0 72 c0 65 -3 77 -33 120 l-33 47 36 -25 c21 -13 52 -27 71
-31z m-1025 -167 c45 -100 128 -278 185 -395 l103 -213 -65 -232 c-35 -128
-75 -280 -88 -338 -24 -106 -40 -149 -55 -149 -24 0 -62 70 -103 190 -24 71
-38 165 -88 563 -58 463 -60 483 -51 608 6 92 13 136 26 155 16 24 18 25 35 9
10 -9 55 -98 101 -198z m1432 -45 c91 -63 206 -121 300 -152 l67 -22 -22 -31
c-46 -68 -191 -272 -198 -280 -4 -4 -60 57 -126 135 -297 356 -333 424 -289
536 l16 39 88 -86 c48 -47 122 -110 164 -139z m2834 163 c-27 -25 -53 -45 -58
-45 -10 0 91 88 101 89 3 0 -17 -20 -43 -44z m1002 -77 c-28 -40 -30 -48 -27
-113 l3 -70 -70 0 c-38 0 -79 -3 -91 -8 -21 -7 -21 -6 -8 42 8 33 9 61 3 87
-5 22 -9 44 -9 49 0 6 31 10 73 10 55 0 81 5 112 22 22 12 41 22 43 22 1 1
-12 -18 -29 -41z m2016 -25 c-20 -148 -120 -527 -156 -592 l-20 -36 6 83 c7
107 23 175 68 287 19 50 50 138 68 198 18 59 34 107 36 107 2 0 1 -21 -2 -47z
m-4460 -10 c20 -49 19 -130 -4 -178 -12 -24 -86 -107 -190 -210 l-171 -170
-150 150 c-82 82 -150 153 -150 157 0 4 17 10 38 13 163 27 378 120 516 224
44 33 83 58 88 55 5 -3 15 -21 23 -41z m1260 33 c11 0 34 3 52 6 32 7 32 7 21
-23 -6 -17 -8 -64 -6 -105 l5 -74 -36 7 c-43 8 -100 8 -135 -1 -24 -6 -25 -5
-18 26 9 42 9 104 0 146 l-8 33 53 -8 c28 -4 61 -7 72 -7z m-2062 -79 c-4 -42
-1 -73 10 -98 l14 -35 -76 2 c-42 1 -82 3 -88 3 -9 1 -13 21 -13 65 0 36 -4
76 -10 90 l-10 26 53 -5 c28 -3 66 -2 82 4 17 5 33 10 36 10 4 1 4 -27 2 -62z
m947 48 c19 -3 56 -2 82 3 l48 9 -8 -26 c-9 -34 -9 -96 1 -143 l8 -37 -38 11
c-21 6 -68 8 -104 6 l-66 -5 9 46 c5 28 5 64 -2 94 -13 62 -14 60 13 54 12 -3
38 -8 57 -12z m3813 -33 c20 -21 139 -303 188 -443 l33 -96 -47 -92 c-26 -51
-89 -159 -139 -239 -211 -338 -222 -351 -274 -338 -40 10 -65 45 -113 158 -24
56 -76 169 -114 250 l-70 148 160 242 c88 134 179 273 203 311 23 37 56 79 72
92 35 29 78 32 101 7z m-831 -82 c26 -5 55 -7 64 -3 14 5 16 3 10 -13 -14 -36
-18 -149 -7 -188 6 -22 9 -41 7 -43 -1 -2 -14 14 -27 35 -20 31 -30 37 -64 40
l-40 3 3 48 c3 34 -3 66 -21 109 l-24 60 26 -18 c14 -11 47 -24 73 -30z
m-4827 6 c22 -13 63 -53 90 -88 28 -34 112 -139 188 -231 l138 -169 -89 -136
c-49 -76 -113 -174 -141 -219 -69 -109 -109 -143 -164 -143 -70 0 -68 -2 -313
303 l-176 217 42 73 c86 145 229 354 264 385 46 41 100 43 161 8z m-671 -91
c-14 -47 -14 -85 3 -144 4 -18 3 -22 -8 -19 -8 3 -29 -1 -48 -8 -18 -8 -35
-14 -36 -14 -1 0 -5 37 -8 83 -3 45 -8 89 -11 98 -5 12 1 15 29 15 20 0 47 9
62 21 16 11 29 20 30 19 1 -1 -5 -24 -13 -51z m4799 -28 c44 -28 311 -340 305
-356 -8 -24 -385 -409 -420 -430 -29 -18 -55 -25 -88 -24 -82 1 -98 14 -263
213 -66 80 -126 152 -134 161 -12 15 7 38 179 214 217 223 254 249 345 242 28
-2 62 -11 76 -20z m-1108 -6 c43 -20 161 -138 313 -313 l93 -108 -154 -155
c-103 -103 -168 -161 -198 -175 -58 -26 -140 -26 -193 0 -33 16 -414 367 -424
389 -1 4 74 82 166 174 112 110 184 173 213 187 55 25 131 25 184 1z m3111
-13 c-3 -18 -31 -249 -61 -512 -31 -264 -57 -481 -59 -483 -2 -2 -6 115 -8
259 l-6 263 29 110 c16 61 46 174 66 253 35 133 53 183 39 110z m-4144 -21
c24 -15 113 -94 198 -176 l155 -150 -200 -199 c-150 -150 -208 -201 -232 -206
-41 -9 -103 17 -181 78 -61 46 -324 293 -331 309 -4 12 212 230 300 302 84 69
100 76 181 71 50 -2 77 -10 110 -29z m-1054 4 c6 -4 88 -83 182 -175 154 -153
168 -171 156 -188 -35 -50 -284 -292 -312 -304 -19 -8 -53 -14 -76 -14 -73 0
-124 40 -263 200 -68 80 -124 147 -124 150 0 3 50 74 112 159 132 182 149 195
247 185 36 -3 71 -9 78 -13z m88 -48 l47 -58 -51 50 c-45 43 -62 65 -48 65 2
0 25 -26 52 -57z m3831 -43 c18 -10 44 -37 58 -59 21 -30 104 -201 141 -287 7
-16 -110 -159 -152 -185 -42 -26 -75 -27 -109 -5 -30 20 -258 304 -253 316 7
19 185 204 213 221 38 24 62 24 102 -1z m1135 -21 c19 12 20 11 13 -6 -11 -26
-24 -89 -31 -158 -5 -46 -9 -54 -14 -35 -3 14 -13 24 -22 24 -13 -1 -14 5 -6
40 5 22 8 67 5 99 -5 58 -5 58 14 41 17 -15 23 -16 41 -5z m-6643 -59 c10 -5
42 -36 70 -69 l51 -59 -36 -64 c-50 -85 -62 -98 -96 -98 -44 0 -66 16 -104 76
l-35 55 21 64 c30 89 77 124 129 95z m276 -332 c61 -78 148 -189 194 -247 107
-136 124 -173 125 -274 0 -75 -2 -82 -59 -194 l-59 -116 -23 29 c-64 79 -310
457 -348 535 -52 107 -62 166 -41 231 17 48 87 178 96 178 3 0 55 -64 115
-142z m4973 0 c94 -114 146 -199 157 -260 13 -71 -29 -135 -343 -518 -52 -63
-98 -116 -102 -118 -11 -4 -241 325 -256 367 -21 57 -17 139 9 193 14 30 94
122 221 258 160 169 202 208 212 198 7 -7 53 -61 102 -120z m-5372 32 c40
-111 39 -208 -3 -320 -17 -47 -56 -164 -87 -260 -30 -97 -63 -193 -72 -215
l-17 -40 -13 30 c-23 54 -17 214 15 370 37 184 132 528 142 518 5 -5 21 -42
35 -83z m6689 -28 c0 -70 -5 -112 -19 -152 -47 -137 -340 -780 -355 -780 -3 0
-17 39 -31 88 -48 169 -30 283 72 439 28 43 91 148 141 233 50 85 108 186 130
223 50 87 61 78 62 -51z m-5325 -33 c133 -155 158 -196 167 -269 10 -87 -9
-127 -122 -259 -56 -66 -131 -154 -166 -196 l-64 -77 -25 29 c-14 16 -65 74
-114 129 -177 197 -173 233 62 582 75 111 137 202 138 202 1 0 57 -64 124
-141z m2012 -44 c106 -101 201 -201 211 -221 26 -50 25 -131 -2 -186 -14 -31
-78 -98 -203 -217 l-182 -172 -183 183 c-101 101 -197 203 -213 227 -50 74
-35 134 60 251 58 71 300 320 312 320 4 0 94 -83 200 -185z m-1080 8 c91 -93
174 -184 184 -203 26 -48 26 -162 0 -210 -10 -19 -82 -106 -158 -193 -121
-137 -142 -156 -156 -145 -50 41 -327 349 -344 382 -11 22 -23 65 -25 96 -8
88 13 124 176 293 79 81 146 147 150 147 4 0 82 -75 173 -167z m2098 -48 c148
-178 180 -226 180 -272 -1 -65 -62 -155 -221 -326 l-102 -109 -144 144 c-159
158 -177 181 -193 252 -9 39 -8 59 5 103 14 48 34 74 168 218 84 90 155 163
159 162 4 -1 71 -78 148 -172z m2352 115 c2 -46 -6 -145 -11 -116 0 5 -11 1
-22 -10 l-21 -19 7 35 c4 19 8 65 7 102 0 58 2 66 18 65 15 -1 19 -11 22 -57z
m-6623 -18 l48 5 -14 -46 c-9 -28 -12 -67 -9 -99 4 -45 2 -53 -10 -48 -9 3
-28 6 -43 6 -27 0 -27 1 -27 63 0 48 -5 74 -27 115 -15 30 -27 55 -27 57 0 2
14 -10 30 -27 28 -27 36 -30 79 -26z m5861 -207 c116 -235 144 -312 136 -372
-5 -42 -45 -129 -85 -187 l-20 -29 -28 48 c-15 26 -76 122 -135 212 -60 91
-113 184 -119 207 -23 85 4 182 82 297 39 58 43 61 56 43 7 -10 58 -109 113
-219z m-3065 104 c-50 -50 -109 -102 -132 -115 -23 -14 -45 -34 -48 -45 -9
-28 -10 -118 -1 -156 l7 -31 -43 10 c-40 9 -96 6 -131 -7 -11 -5 -14 8 -13 67
1 40 -2 85 -6 99 l-8 26 75 -5 c93 -6 117 7 270 147 61 55 112 100 115 100 2
1 -36 -40 -85 -90z m2774 -81 c-5 -18 -9 -61 -9 -94 l0 -62 -41 5 c-37 5 -44
2 -81 -33 l-40 -39 22 44 c18 37 21 57 18 121 l-3 77 35 -4 c19 -3 46 0 60 6
44 17 50 14 39 -21z m1052 -38 c4 -30 12 -125 20 -212 12 -153 12 -162 -20
-435 -34 -298 -45 -347 -136 -602 -55 -152 -66 -171 -92 -155 -27 17 -49 84
-124 383 l-68 273 38 77 c55 109 201 427 255 556 58 138 81 177 104 173 13 -2
19 -17 23 -58z m-3141 -10 c18 -15 19 -18 5 -11 -11 5 -36 24 -55 41 -30 27
-31 29 -5 11 17 -11 41 -30 55 -41z m-1863 -45 c-1 -33 2 -77 6 -97 l8 -37
-30 10 c-17 6 -55 9 -85 7 l-55 -3 1 60 c0 33 -2 74 -6 90 l-6 30 84 0 85 0
-2 -60z m-1588 20 c29 -14 48 -40 161 -220 35 -55 107 -166 162 -248 l98 -147
-35 -71 c-20 -38 -76 -165 -126 -282 -88 -206 -117 -257 -147 -257 -51 0 -139
124 -312 438 l-112 203 27 87 c40 129 113 328 146 398 53 113 78 130 138 99z
m3593 -25 c29 0 68 4 86 9 29 9 32 8 28 -7 -13 -47 -16 -102 -8 -139 l10 -42
-67 6 c-89 7 -145 -9 -160 -45 -7 -16 -53 -69 -103 -118 l-91 -89 94 107 c117
131 143 180 136 251 -2 29 -8 60 -12 71 -7 16 -6 17 13 7 11 -6 45 -11 74 -11z
m963 -34 l60 -1 0 -97 0 -97 -25 7 c-14 4 -53 7 -86 7 l-61 -1 8 31 c17 58 11
120 -16 159 l-25 36 43 -21 c28 -15 62 -22 102 -23z m-3805 -54 c-24 -49 -25
-99 -5 -149 19 -44 19 -49 0 -33 -15 12 -82 10 -116 -4 -14 -6 -17 5 -22 71
-3 43 -8 86 -12 96 -6 15 -1 17 47 17 41 0 64 6 89 23 19 13 35 23 36 22 2 -1
-6 -20 -17 -43z m4765 -36 c26 -11 52 -42 112 -133 44 -65 97 -147 118 -183
21 -36 47 -79 57 -97 l19 -32 -128 -159 c-194 -241 -275 -337 -303 -358 -37
-28 -99 -25 -139 6 -18 14 -90 115 -160 224 l-128 199 201 251 c163 203 210
255 246 274 52 26 60 27 105 8z m-6002 -116 c36 -104 63 -228 55 -251 -5 -14
-89 266 -98 329 -10 64 3 40 43 -78z m2089 42 c39 -23 378 -369 378 -386 0
-13 -312 -385 -337 -401 -44 -29 -123 -32 -170 -6 -32 19 -322 317 -384 396
l-20 24 93 108 c130 151 228 253 263 274 46 29 120 25 177 -9z m1012 -56 c28
-20 124 -112 213 -205 l162 -168 -160 -152 c-88 -83 -174 -158 -192 -168 -47
-24 -142 -22 -192 4 -45 24 -369 346 -364 361 10 26 284 324 312 339 82 43
148 39 221 -11z m1070 24 c24 -11 109 -87 201 -180 l160 -160 -185 -186 c-102
-102 -202 -194 -222 -205 -48 -25 -130 -25 -183 0 -24 11 -104 83 -198 178
l-158 160 108 99 c220 202 313 276 381 300 49 17 49 17 96 -6z m2380 -10 c14
0 28 5 31 10 3 6 10 10 15 10 5 0 -3 -21 -17 -46 -23 -41 -25 -53 -21 -132 l5
-86 -19 43 c-18 43 -19 43 -58 37 l-40 -6 11 27 c6 16 12 60 13 99 l1 72 27
-14 c15 -8 38 -14 52 -14z m-1474 -44 c49 -32 87 -80 194 -243 l94 -141 -95
-109 c-52 -59 -111 -118 -131 -130 -43 -27 -128 -31 -170 -9 -22 11 -196 190
-312 319 l-24 28 139 140 c77 77 156 149 175 160 42 23 80 18 130 -15z m-4965
-78 c0 -40 3 -88 7 -105 6 -25 4 -33 -6 -33 -8 0 -19 -12 -24 -27 -8 -24 -10
-16 -17 52 -4 44 -13 96 -20 116 -13 35 -12 36 10 31 16 -3 27 2 34 17 7 12
13 21 14 21 1 0 2 -33 2 -72z m1111 20 c41 -30 180 -166 215 -210 l30 -37 -81
-103 c-89 -113 -119 -138 -168 -138 -64 0 -111 39 -200 168 l-51 74 46 91 c58
118 79 146 117 163 43 18 59 17 92 -8z m74 -10 c15 -21 17 -28 6 -19 -16 13
-41 51 -33 51 2 0 14 -15 27 -32z m-1275 -114 c35 -118 36 -121 29 -247 -4
-70 -8 -126 -10 -125 -1 2 -14 102 -28 223 -15 121 -29 234 -32 250 -13 62 7
14 41 -101z m6519 -23 c22 -24 75 -150 76 -178 0 -29 -66 -103 -91 -103 -25 0
-44 23 -101 122 -51 89 -51 93 3 147 36 37 86 42 113 12z m-6417 -77 c-3 -3
-12 -4 -19 -1 -8 3 -5 6 6 6 11 1 17 -2 13 -5z m-5 -64 c15 0 16 -7 12 -47 -3
-27 -1 -67 4 -91 9 -40 9 -42 -9 -37 -15 5 -19 1 -19 -16 0 -41 -11 -12 -19
52 l-8 64 -3 -95 c-1 -52 -6 -117 -10 -145 -7 -37 -8 -20 -4 60 9 204 16 277
27 266 6 -6 19 -11 29 -11z m88 -60 c22 -43 99 -180 172 -302 73 -123 140
-245 150 -273 20 -58 23 -160 7 -253 l-11 -64 -56 104 c-81 152 -224 459 -265
568 -42 113 -60 203 -51 259 4 23 8 41 10 41 2 0 22 -36 44 -80z m6176 2 c55
-90 74 -142 74 -205 -1 -89 -12 -109 -379 -689 -20 -32 -39 -58 -43 -58 -5 0
-38 60 -74 133 -54 107 -68 143 -72 193 -8 108 11 149 150 320 68 82 161 200
208 262 47 61 87 111 90 111 3 0 23 -30 46 -67z m-4690 -132 c206 -220 234
-262 234 -356 0 -36 -6 -79 -14 -97 -14 -34 -183 -281 -194 -284 -8 -2 -204
235 -294 355 -65 86 -113 171 -122 218 -10 47 12 90 116 230 51 68 94 124 94
124 1 0 82 -86 180 -190z m2985 92 c127 -132 181 -197 224 -268 47 -77 46
-131 -7 -198 -54 -70 -380 -417 -388 -414 -19 7 -301 340 -319 377 -25 47 -28
135 -8 184 8 18 27 48 43 67 l29 35 -40 -28 -40 -28 34 30 c19 17 37 28 41 26
3 -2 78 68 166 156 87 87 162 159 165 159 4 0 49 -44 100 -98z m-3669 -7 c71
-103 87 -134 99 -199 16 -88 0 -133 -110 -301 -54 -82 -118 -185 -142 -227
-24 -43 -47 -78 -51 -78 -16 0 -106 142 -118 186 -17 58 -5 141 33 229 70 167
221 484 227 478 4 -5 32 -44 62 -88z m1853 -266 c23 -44 30 -128 15 -174 -9
-27 -63 -91 -183 -217 -94 -98 -175 -177 -181 -176 -20 5 -313 314 -331 348
-50 96 -10 173 234 461 l105 122 163 -166 c89 -92 170 -181 178 -198z m831
171 c169 -170 194 -207 194 -289 -1 -87 -23 -122 -188 -285 l-151 -149 -118
110 c-231 218 -253 247 -253 338 0 80 21 111 188 272 86 84 162 152 168 153 7
0 79 -67 160 -150z m1754 55 c65 -87 211 -315 231 -360 44 -96 9 -180 -153
-368 l-33 -38 -140 167 c-77 92 -148 184 -157 203 -26 53 -24 147 5 202 22 44
185 247 199 248 4 1 26 -24 48 -54z m1310 -410 c34 -88 55 -315 30 -330 -5 -3
-10 -1 -10 5 0 7 -31 91 -69 188 -93 236 -115 323 -108 427 2 44 12 98 21 120
l17 40 54 -210 c29 -115 58 -223 65 -240z m-180 354 c-6 -18 -10 -61 -10 -95
l0 -61 -32 5 c-26 4 -36 0 -55 -24 l-22 -29 14 49 c8 27 15 77 15 112 0 56 2
62 19 57 10 -3 32 2 47 10 16 8 30 14 31 13 2 -1 -2 -18 -7 -37z m-5358 -57
l58 -4 0 -62 c0 -34 4 -75 9 -92 l9 -31 -41 14 c-22 8 -52 11 -68 8 l-27 -6 1
59 c1 51 -3 67 -31 111 l-32 52 32 -22 c21 -16 51 -24 90 -27z m-1032 -57 c15
-33 60 -132 100 -220 39 -88 106 -232 148 -319 l77 -159 -39 -146 c-21 -80
-56 -216 -77 -301 -52 -209 -61 -235 -79 -235 -22 0 -66 87 -105 210 -31 98
-40 157 -84 530 -46 389 -49 429 -41 540 9 120 14 149 33 173 15 19 36 -4 67
-73z m4966 -50 c-30 -43 -41 -91 -32 -137 l6 -33 -80 0 -79 0 7 25 c9 32 9 87
-1 125 l-7 30 72 0 c47 0 84 6 103 16 17 8 31 15 33 13 2 -1 -8 -18 -22 -39z
m1870 -67 c-14 -128 -122 -528 -146 -543 -27 -17 10 209 50 310 16 38 44 121
62 182 18 62 35 113 37 113 2 0 0 -28 -3 -62z m-3996 38 c25 0 57 3 71 7 l27
7 -5 -64 c-3 -35 -1 -77 4 -93 l10 -28 -98 0 -98 0 6 55 c3 30 1 72 -5 92 -10
38 -10 38 16 31 15 -3 47 -7 72 -7z m1087 -46 c-5 -19 -7 -60 -4 -90 l5 -55
-87 0 -86 0 0 90 0 90 91 0 91 0 -10 -35z m2450 8 c20 -23 126 -278 180 -436
l28 -82 -57 -113 c-65 -126 -273 -467 -311 -509 -30 -34 -67 -36 -101 -5 -15
13 -53 86 -92 177 -36 85 -86 194 -110 242 -24 48 -44 92 -44 97 0 5 60 101
133 213 73 112 157 242 185 290 82 136 143 176 189 126z m-4428 -10 c-11 -21
-8 -126 5 -158 6 -14 -3 -15 -57 -12 -37 2 -73 -1 -86 -7 -20 -11 -21 -10 -21
57 0 38 -3 83 -6 99 l-6 29 59 -4 c32 -2 69 1 83 7 37 15 42 13 29 -11z m-869
-43 c23 -12 316 -362 407 -486 10 -13 3 -29 -41 -95 -29 -43 -91 -142 -139
-219 -102 -166 -120 -186 -180 -192 -39 -5 -48 -1 -80 27 -55 47 -387 464
-387 484 0 11 131 233 193 326 58 88 91 125 132 151 36 23 57 24 95 4z m4559
-53 c33 4 33 4 27 -31 -3 -20 -6 -64 -6 -99 0 -59 -1 -62 -19 -52 -11 5 -42
10 -70 10 -50 0 -50 0 -41 26 15 39 12 137 -5 160 -24 31 -18 33 33 7 30 -16
59 -23 81 -21z m-5160 -78 c-6 -21 -9 -67 -6 -101 4 -59 3 -63 -17 -63 -26 0
-39 -9 -54 -35 -9 -16 -11 -5 -12 58 0 44 -6 92 -14 112 l-14 33 32 -5 c25 -4
39 1 62 20 16 14 30 24 31 23 1 -1 -2 -20 -8 -42z m4464 9 c22 -11 285 -307
309 -347 8 -14 -372 -425 -415 -448 -42 -22 -113 -22 -156 1 -20 11 -91 88
-176 192 l-142 174 111 120 c251 270 287 305 335 320 49 15 89 11 134 -12z
m-1998 -33 c23 -11 109 -85 203 -177 l163 -158 -198 -202 c-109 -111 -209
-205 -221 -208 -69 -20 -142 28 -364 237 l-148 140 102 107 c57 58 119 125
137 149 42 51 129 120 168 132 37 12 108 3 158 -20z m982 -21 c30 -15 65 -48
120 -117 42 -53 107 -131 145 -174 37 -42 68 -82 68 -88 0 -20 -243 -261 -285
-283 -54 -28 -137 -29 -187 -2 -20 11 -114 94 -208 184 l-171 164 148 149 c81
82 164 158 183 168 48 26 132 26 187 -1z m2837 -405 c-25 -219 -49 -408 -53
-419 -4 -11 -11 73 -15 185 -7 205 -7 205 22 315 61 233 87 324 89 321 1 -1
-18 -182 -43 -402z m-4806 382 c15 -8 93 -81 174 -163 l148 -148 -126 -137
c-162 -176 -201 -194 -311 -141 -46 21 -267 277 -259 299 7 18 141 210 170
243 52 59 142 80 204 47z m4726 -87 c15 12 15 10 2 -20 -8 -19 -17 -68 -21
-109 -6 -59 -9 -70 -16 -51 -6 16 -14 21 -25 17 -13 -5 -15 -2 -10 16 3 13 9
53 12 90 6 61 8 65 25 55 13 -8 21 -8 33 2z m-1021 -39 c46 -50 140 -247 133
-276 -3 -12 -36 -53 -73 -93 -59 -62 -73 -71 -103 -71 -22 0 -45 9 -62 23 -30
24 -208 253 -208 266 0 5 39 50 88 100 l87 91 51 0 c47 0 55 -3 87 -40z
m-5126 -86 c29 -31 53 -61 53 -67 0 -14 -48 -97 -73 -124 -31 -35 -64 -29
-108 17 -22 22 -41 51 -45 64 -8 34 12 100 42 136 39 46 68 41 131 -26z m160
-204 c158 -201 299 -388 322 -429 21 -37 25 -59 26 -122 0 -43 -3 -80 -7 -84
-4 -4 -36 19 -72 51 -89 82 -178 133 -307 177 -9 3 -38 50 -65 104 -44 87 -49
105 -49 164 0 57 5 76 39 143 22 42 42 75 46 74 4 -2 34 -37 67 -78z m4688
-20 c85 -106 145 -216 145 -265 l0 -32 -76 -6 c-185 -16 -373 -102 -516 -235
l-47 -43 -12 23 c-7 13 -13 55 -13 93 -1 84 14 115 92 200 31 33 119 129 196
213 77 84 143 151 147 150 4 -2 42 -46 84 -98z m1223 -29 c-4 -82 -10 -109
-43 -191 -64 -160 -183 -429 -248 -559 l-61 -125 -19 60 c-27 85 -34 230 -13
290 9 27 52 107 95 179 43 71 122 208 176 304 112 199 120 202 113 42z m-3073
-45 c95 -91 174 -175 186 -198 27 -53 27 -133 0 -184 -16 -33 -210 -232 -344
-354 l-37 -34 -161 159 c-167 166 -219 231 -219 274 1 41 32 100 97 181 74 93
293 322 304 318 4 -2 83 -74 174 -162z m-3154 64 c34 -107 30 -184 -19 -325
-22 -66 -64 -195 -93 -287 -29 -93 -56 -168 -60 -168 -4 0 -12 29 -18 64 -22
124 18 347 136 755 18 62 23 58 54 -39z m1269 -32 c58 -68 115 -143 127 -167
27 -52 31 -143 10 -194 -8 -18 -71 -101 -140 -184 -69 -84 -138 -168 -153
-188 -14 -19 -30 -35 -34 -35 -13 0 -173 188 -203 238 -23 39 -27 56 -24 102
4 75 37 142 160 328 57 86 112 172 123 190 10 17 21 32 24 32 3 0 53 -55 110
-122z m854 -65 c93 -96 173 -187 181 -207 21 -49 19 -144 -3 -186 -9 -19 -71
-97 -137 -173 l-120 -139 -30 34 c-16 19 -90 99 -163 178 -73 79 -143 162
-155 184 -26 50 -30 156 -7 198 18 33 252 288 262 285 3 -1 81 -79 172 -174z
m4145 148 c8 -6 15 -34 17 -80 3 -63 1 -71 -15 -71 -10 0 -23 -10 -29 -22 -9
-20 -10 -18 -4 12 4 19 7 65 7 103 0 70 1 72 24 58z m-2247 -108 c248 -290
259 -310 216 -405 -26 -55 -86 -133 -199 -257 l-66 -72 -150 158 c-83 87 -158
172 -167 190 -25 50 -21 139 10 193 23 40 250 287 265 289 4 1 45 -43 91 -96z
m-3952 27 c16 -7 38 -10 49 -7 17 4 19 -1 18 -47 -1 -28 2 -68 6 -89 8 -37 7
-38 -15 -31 -13 4 -33 8 -45 9 -21 0 -23 5 -23 50 0 32 -9 69 -25 103 -28 61
-32 76 -10 46 8 -12 28 -27 45 -34z m5438 -72 c97 -184 171 -358 178 -419 6
-53 -10 -169 -24 -169 -4 0 -27 35 -52 76 -59 99 -126 173 -203 224 -42 28
-64 50 -68 68 -20 83 1 169 66 271 22 33 41 61 42 61 1 0 28 -51 61 -112z
m-2819 -71 c-52 -50 -106 -99 -119 -108 -19 -13 -24 -26 -28 -77 -2 -33 0 -75
6 -91 11 -30 11 -30 -21 -23 -40 9 -83 9 -123 0 l-31 -7 5 68 c4 65 3 69 -28
104 -36 42 -36 43 13 22 20 -8 63 -15 95 -15 71 0 105 21 232 139 47 44 87 80
90 80 3 1 -38 -41 -91 -92z m2610 -20 c-6 -26 -9 -64 -7 -87 4 -45 7 -44 -61
-28 l-51 11 0 53 c0 29 -3 60 -7 70 -5 14 -1 16 28 11 19 -3 50 0 69 7 19 7
36 11 38 10 2 -1 -2 -22 -9 -47z m983 2 c4 -13 12 -103 18 -199 10 -148 9
-195 -4 -300 -9 -68 -16 -129 -16 -134 0 -5 -8 -2 -18 7 -41 37 -100 12 -193
-83 -30 -31 -75 -85 -99 -119 -49 -69 -53 -68 -70 24 l-12 62 67 134 c77 154
123 256 206 458 74 180 102 215 121 150z m-2912 -46 c0 -9 -37 18 -60 43 -22
24 -20 23 18 -6 23 -18 42 -35 42 -37z m-1821 16 c33 0 65 2 70 5 5 4 7 -17 4
-51 -3 -32 -1 -75 5 -95 10 -38 10 -38 -16 -30 -15 4 -52 7 -82 6 l-56 0 4 55
c3 50 0 61 -27 98 -17 24 -31 45 -31 48 0 2 15 -5 34 -16 24 -14 53 -20 95
-20z m-1418 -29 c10 -6 35 -34 54 -62 l35 -52 -61 -13 c-74 -15 -137 -51 -178
-100 -17 -21 -31 -35 -31 -32 0 4 16 46 36 95 62 155 94 191 145 164z m3473
-25 c-24 -32 -26 -41 -22 -100 l6 -65 -52 6 c-75 9 -127 -8 -149 -49 -10 -19
-53 -67 -94 -108 l-76 -74 82 95 c123 142 143 193 115 287 -6 20 -4 21 31 13
40 -9 133 2 162 19 27 15 26 14 -3 -24z m796 -73 l50 3 -8 -35 c-4 -19 -6 -61
-6 -92 l2 -58 -27 8 c-14 4 -50 6 -79 5 -50 -1 -52 0 -46 20 4 12 7 54 7 94
l-1 71 29 -10 c16 -5 51 -8 79 -6z m710 -11 c0 -25 -525 -677 -606 -753 -59
-54 -132 -63 -201 -23 -23 14 -43 30 -43 35 0 17 47 134 80 200 145 288 400
495 662 539 74 12 108 13 108 2z m-4275 -42 c-17 -32 -17 -122 -1 -159 5 -12
-3 -15 -41 -15 -27 0 -57 -3 -68 -7 -19 -7 -20 -4 -20 55 0 34 -3 76 -7 92
l-6 30 48 0 c34 0 57 6 77 21 15 12 29 20 31 19 2 -2 -4 -18 -13 -36z m-1105
-287 c7 -33 10 -67 8 -78 -3 -20 -108 333 -107 363 0 27 86 -217 99 -285z
m5558 284 c28 -15 135 -176 289 -436 101 -171 123 -222 123 -293 0 -73 -31
-133 -230 -452 -257 -410 -336 -504 -407 -480 -19 7 -70 65 -166 190 -76 99
-186 239 -244 310 -139 170 -148 185 -148 260 1 87 24 127 185 320 78 94 211
258 295 366 156 199 188 228 248 229 15 0 40 -6 55 -14z m-5002 -63 c202 -299
414 -632 424 -668 7 -24 11 -73 8 -107 -3 -60 -9 -71 -110 -233 -58 -93 -140
-234 -183 -313 -84 -155 -106 -177 -151 -147 -12 8 -34 30 -48 48 -32 42 -269
527 -324 662 -64 159 -70 188 -60 280 34 319 173 511 371 514 44 1 49 -2 73
-36z m1339 7 c50 -24 379 -375 371 -395 -3 -8 -50 -69 -105 -138 l-100 -123
-88 18 c-67 15 -116 18 -208 15 -66 -3 -127 -8 -136 -11 -11 -5 -44 26 -120
109 -57 64 -105 121 -107 125 -4 11 170 230 253 319 33 35 74 72 90 83 39 24
98 23 150 -2z m-1230 -18 c153 -76 324 -266 420 -467 60 -124 59 -123 20 -131
-66 -12 -104 22 -240 216 -108 156 -247 361 -269 399 -10 15 18 9 69 -17z
m3162 -2 c28 -11 363 -337 363 -354 0 -5 -79 -91 -175 -192 -185 -192 -228
-224 -301 -224 -71 1 -112 30 -278 200 l-159 164 99 96 c163 156 285 259 348
290 67 34 65 34 103 20z m1943 -57 c66 -75 129 -184 166 -288 19 -53 34 -101
34 -108 0 -6 -35 52 -79 129 -43 77 -106 184 -140 238 -64 102 -56 114 19 29z
m309 14 l29 11 -25 -47 c-22 -40 -24 -54 -19 -115 l5 -70 -20 33 c-16 27 -24
32 -44 27 -23 -6 -24 -5 -15 20 12 32 13 89 1 131 l-9 32 34 -17 c28 -13 41
-14 63 -5z m-3266 -18 c36 -19 356 -332 357 -350 0 -15 -274 -272 -305 -285
-19 -8 -55 -14 -79 -14 -85 0 -116 22 -275 188 l-149 156 119 136 c137 158
137 158 186 176 55 19 98 17 146 -7z m-2843 -182 c43 -148 46 -188 31 -407
l-6 -95 -33 290 c-18 160 -35 308 -38 330 -6 55 0 41 46 -118z m4718 133 c23
-10 42 -22 42 -25 0 -4 -25 -41 -55 -83 -58 -79 -146 -244 -166 -312 -7 -22
-15 -40 -19 -40 -3 0 -51 48 -105 106 l-99 106 130 128 c75 75 140 130 154
133 50 9 76 6 118 -13z m-4615 -187 c3 -2 -5 -14 -17 -26 l-21 -22 -11 80 c-6
44 -14 90 -18 102 -6 18 -4 21 13 16 14 -4 23 1 28 13 5 12 10 -14 15 -69 3
-49 9 -91 11 -94z m1082 135 c16 -25 21 -37 11 -29 -16 14 -51 71 -43 71 3 0
17 -19 32 -42z m-37 -20 c22 -18 75 -70 117 -115 l76 -82 -67 -86 c-37 -48
-70 -83 -74 -78 -4 4 -17 33 -30 63 -26 65 -89 175 -137 243 -19 27 -33 50
-31 51 62 46 92 47 146 4z m4925 -106 c21 -24 53 -98 61 -143 5 -31 2 -42 -20
-68 -14 -17 -35 -31 -47 -31 -20 0 -25 12 -48 123 -15 67 -25 125 -22 130 8
14 60 7 76 -11z m481 -111 c17 -18 17 -27 2 -148 -16 -128 -39 -214 -111 -413
-59 -165 -79 -174 -119 -52 -28 86 -85 309 -88 345 -2 27 41 92 114 173 98
107 163 138 202 95z m-2081 -227 c25 -30 25 -31 11 -94 -8 -36 -17 -121 -21
-189 l-6 -124 -145 -158 -144 -158 -131 152 c-71 84 -138 170 -148 192 -23 50
-24 129 -1 177 9 21 100 123 201 228 l184 192 88 -94 c48 -52 98 -108 112
-124z m-4353 180 c0 -12 -3 -48 -6 -80 -5 -49 -10 -60 -25 -61 -15 -1 -19 5
-19 30 0 18 -3 55 -6 83 l-6 51 31 -1 c24 -1 31 -5 31 -22z m2536 -304 c25
-50 29 -128 10 -173 l-15 -38 -67 57 c-37 31 -98 76 -135 100 -70 46 -230 127
-269 137 -17 4 -21 9 -13 19 6 7 50 62 98 122 l89 109 142 -149 c79 -82 151
-165 160 -184z m-1129 95 c-67 -28 -128 -66 -195 -122 -35 -30 -53 -40 -56
-31 -2 7 -11 43 -20 79 -8 36 -18 73 -21 81 -4 9 24 55 72 118 l78 103 97
-104 97 -103 -52 -21z m1892 35 c84 -89 159 -176 167 -195 19 -46 17 -132 -4
-177 -9 -21 -75 -96 -147 -168 l-129 -131 -163 163 c-90 90 -170 178 -179 197
-23 49 -21 127 4 176 20 40 271 295 290 295 5 0 78 -72 161 -160z m-3362 -43
c-2 -23 -3 -1 -3 48 0 50 1 68 3 42 2 -26 2 -67 0 -90z m6123 63 c11 -47 10
-54 -11 -96 -13 -24 -27 -44 -31 -44 -12 0 -10 92 3 150 6 27 14 48 19 45 4
-3 13 -28 20 -55z m-70 0 c-5 -25 -9 -64 -10 -87 0 -62 -27 -58 -35 5 -3 26
-8 58 -11 73 -4 21 1 28 28 40 18 8 34 15 35 14 1 0 -3 -20 -7 -45z m-4982
-50 l52 0 0 -64 c0 -35 7 -83 15 -106 8 -23 15 -44 15 -45 0 -1 -17 15 -39 36
-39 39 -76 50 -98 28 -7 -7 -9 5 -5 41 4 44 1 57 -26 100 l-30 49 31 -20 c21
-12 50 -19 85 -19z m4913 -31 c2 -34 -3 -53 -19 -75 l-21 -29 14 49 c8 27 15
63 15 79 0 46 8 28 11 -24z m-5911 -429 c32 -316 82 -576 146 -768 34 -103 41
-138 34 -153 -30 -56 -71 20 -145 269 -28 96 -41 173 -70 422 -35 294 -36 311
-27 475 6 96 16 183 23 200 12 27 14 10 20 -150 4 -99 12 -232 19 -295z m60
330 c134 -298 197 -435 256 -550 68 -134 94 -216 94 -293 0 -31 -18 -107 -50
-205 -27 -87 -55 -179 -63 -207 -8 -27 -18 -50 -22 -50 -17 0 -86 143 -121
250 -65 201 -112 444 -139 729 -14 145 -21 455 -11 445 3 -2 28 -56 56 -119z
m1790 109 c35 -5 66 -12 68 -14 8 -8 -51 -70 -87 -92 -71 -44 -149 -25 -222
55 -39 41 -41 46 -23 53 29 11 190 10 264 -2z m-293 -82 c66 -71 90 -115 99
-179 11 -76 -11 -123 -151 -333 -73 -110 -174 -270 -225 -355 -51 -85 -104
-167 -118 -182 -33 -36 -81 -52 -116 -39 -30 12 -31 13 -12 49 29 56 87 238
106 334 28 133 39 317 29 453 l-8 110 62 58 c59 57 219 147 258 147 9 0 43
-28 76 -63z m3104 29 c-27 -29 -42 -88 -35 -137 l6 -37 -73 -4 c-41 -3 -75 -4
-76 -4 -1 1 3 20 10 43 7 29 8 55 1 85 l-10 44 60 0 c38 0 72 6 91 16 43 23
52 21 26 -6z m1441 -44 c37 -116 79 -299 85 -372 10 -130 -24 -212 -228 -555
-134 -225 -136 -227 -165 -243 -29 -16 -34 -7 -34 59 0 44 8 77 35 138 94 214
155 501 155 733 0 63 5 84 35 146 46 97 86 164 93 157 3 -3 14 -31 24 -63z
m-3946 -7 c338 -166 575 -463 658 -822 l14 -61 -46 -47 c-26 -25 -56 -48 -69
-51 -70 -18 -165 58 -499 399 -299 305 -344 360 -344 421 0 46 32 120 80 185
29 39 35 43 63 37 18 -3 82 -30 143 -61z m2295 -23 c9 -33 9 -49 0 -70 -16
-36 -62 -102 -71 -102 -8 0 -3 78 12 184 11 79 11 79 29 55 10 -13 23 -43 30
-67z m-651 54 c0 -3 -15 -14 -32 -26 l-33 -22 30 26 c31 27 35 29 35 22z
m-1037 -78 c-3 -31 -1 -70 5 -87 11 -31 11 -31 -16 -24 -15 5 -56 7 -91 6
l-63 -1 6 38 c3 21 2 57 -2 81 l-8 44 87 0 87 0 -5 -57z m3582 -423 c-30 -258
-56 -483 -56 -500 -3 -65 -17 63 -28 250 -15 245 -7 305 64 500 18 50 40 120
50 158 10 37 20 66 22 64 1 -2 -22 -215 -52 -472z m-423 388 c3 -59 -3 -84
-40 -188 -82 -225 -152 -547 -152 -698 0 -39 -7 -65 -29 -102 -34 -59 -97
-132 -150 -174 l-38 -31 -78 126 c-70 114 -78 130 -82 187 -3 38 1 80 10 107
7 25 99 178 203 340 105 162 209 327 232 367 41 69 94 133 112 133 5 0 10 -30
12 -67z m44 53 c3 -8 1 -22 -4 -32 -8 -14 -10 -11 -14 15 -5 31 8 43 18 17z
m-2369 -22 c23 -4 55 -2 72 4 17 6 31 9 31 7 0 -2 -5 -26 -10 -53 -7 -32 -8
-63 -1 -91 l9 -42 -29 6 c-39 9 -112 8 -140 0 -18 -6 -21 -4 -15 11 14 37 18
101 8 138 -11 37 -10 38 11 32 12 -3 41 -9 64 -12z m-1763 -72 c-4 -39 -2 -68
8 -92 l15 -35 -78 0 -78 0 2 50 c1 27 -2 66 -6 86 l-7 36 47 -4 c27 -3 59 0
73 6 14 5 26 10 27 10 2 1 0 -25 -3 -57z m-800 24 c19 -8 37 -19 40 -25 4 -6
-14 -52 -39 -104 -103 -213 -137 -491 -94 -781 l12 -77 -47 -67 c-25 -37 -61
-85 -80 -107 l-34 -40 -78 120 c-43 66 -98 160 -123 210 -42 81 -46 96 -46
160 0 69 2 74 74 205 125 229 244 421 292 471 48 53 68 58 123 35z m93 -296
c-7 -226 -41 -392 -120 -574 l-21 -50 -7 34 c-27 131 -17 375 21 527 21 82 70
201 102 253 22 34 22 35 26 10 2 -14 2 -104 -1 -200z m3498 204 c32 -15 167
-172 302 -349 33 -44 88 -114 122 -155 69 -84 131 -198 131 -242 0 -16 -7 -45
-15 -66 -16 -37 -194 -281 -207 -282 -22 -1 -167 113 -241 189 -161 167 -265
372 -316 628 -12 55 -21 121 -21 146 0 39 5 49 37 77 73 65 146 84 208 54z
m-1860 -34 c22 -10 114 -90 205 -178 l164 -159 -129 -136 -129 -135 -23 80
c-48 166 -126 318 -232 453 l-52 66 33 14 c46 20 116 18 163 -5z m3151 -107
c-9 -116 -31 -246 -62 -363 -27 -101 -83 -254 -90 -247 -8 8 17 201 41 324 24
115 101 373 112 373 3 0 3 -39 -1 -87z m-4001 5 c39 -52 42 -57 14 -31 -31 29
-76 93 -66 93 2 0 25 -28 52 -62z m1737 52 c51 -15 87 -47 176 -159 41 -53 93
-116 114 -140 21 -24 38 -48 38 -54 0 -18 -224 -239 -257 -253 -42 -18 -115
-18 -160 1 -20 9 -99 78 -187 165 l-151 149 130 132 c162 163 202 185 297 159z
m-1814 -31 c43 -15 668 -659 693 -714 24 -52 24 -129 0 -180 -11 -22 -80 -113
-154 -201 -74 -89 -197 -242 -273 -339 -75 -98 -151 -186 -168 -197 -44 -27
-126 -21 -162 13 -102 94 -553 615 -575 664 -42 91 -19 161 132 395 287 447
342 524 389 548 50 25 73 27 118 11z m2517 -174 c23 -127 67 -252 136 -385 54
-105 58 -116 43 -127 -33 -24 -80 -26 -126 -5 -37 16 -69 49 -186 196 -78 97
-142 180 -142 185 0 5 51 63 113 131 61 67 117 129 122 136 12 17 15 6 40
-131z m1901 85 c-3 -14 -9 -61 -12 -105 -6 -67 -9 -76 -17 -52 -5 15 -13 24
-19 21 -8 -5 -9 5 -5 32 4 21 7 59 7 84 0 42 2 45 26 45 22 0 25 -3 20 -25z
m-30 -236 c19 -45 34 -227 34 -418 0 -210 -41 -579 -73 -651 -34 -76 -72 -115
-114 -115 -96 0 -186 118 -240 315 -21 74 -24 105 -20 170 6 92 19 128 91 245
29 47 99 171 156 275 57 105 110 198 118 207 18 22 30 15 48 -28z m-2884 -141
c157 -159 178 -189 178 -258 0 -71 -19 -97 -212 -291 l-189 -191 -118 121
-119 120 5 170 c3 94 9 177 12 184 9 16 274 301 281 302 3 0 76 -71 162 -157z
m727 55 c55 -61 216 -261 247 -308 59 -89 26 -169 -152 -367 l-65 -72 -154
164 c-159 170 -175 195 -175 275 1 60 34 114 145 234 59 64 109 116 111 116 2
0 21 -19 43 -42z m-3575 -25 c35 6 36 5 29 -21 -5 -15 -8 -52 -8 -83 l0 -57
-37 2 -38 1 0 52 c0 29 -9 71 -20 97 l-19 46 29 -21 c22 -17 37 -20 64 -16z
m4825 -130 c-5 -21 -9 -62 -9 -90 0 -52 0 -52 -26 -43 -33 13 -28 14 -69 -21
l-35 -31 16 38 c11 26 15 58 12 101 l-4 63 41 1 c32 0 55 5 81 18 1 1 -2 -16
-7 -36z m-1789 -50 c0 -9 -37 18 -60 43 -22 24 -20 23 18 -6 23 -18 42 -35 42
-37z m152 -27 l43 10 0 -92 0 -91 -30 9 c-30 9 -113 2 -131 -10 -5 -4 -26 -29
-46 -57 -20 -27 -60 -72 -89 -100 l-53 -50 55 63 c130 152 159 210 139 280
-14 51 -15 50 29 39 27 -7 54 -8 83 -1z m-3150 -23 c41 -45 222 -326 222 -347
1 -23 -107 -100 -161 -115 -95 -27 -190 -6 -261 55 l-33 29 35 85 c18 47 46
126 62 175 32 105 56 145 88 145 12 0 34 -12 48 -27z m2223 -127 c0 -52 -3
-92 -7 -90 -11 7 -91 7 -124 0 l-29 -6 0 89 0 89 55 -5 c30 -3 66 0 80 5 14 6
25 11 25 11 0 1 0 -41 0 -93z m77 -62 l-8 -49 -17 32 c-23 43 -21 86 6 136
l22 42 3 -56 c2 -31 -1 -78 -6 -105z m-2691 -232 c24 -125 0 -68 -60 145 -34
120 -61 223 -61 228 1 21 109 -313 121 -373z m4333 330 c55 3 55 3 48 -22 -9
-33 -9 -116 1 -160 l7 -35 -27 34 c-29 34 -56 41 -104 28 l-26 -7 5 69 c4 60
2 73 -18 100 l-22 32 41 -22 c31 -16 54 -20 95 -17z m251 -115 c27 -27 79 -69
115 -94 36 -26 69 -50 74 -54 8 -7 -141 -209 -154 -209 -9 0 -177 260 -189
293 -16 41 -13 121 5 167 l16 40 41 -47 c23 -27 64 -70 92 -96z m592 98 c31
-22 148 -214 136 -226 -5 -5 -36 -19 -69 -31 -81 -29 -213 -29 -306 1 -38 12
-68 24 -68 27 0 16 165 216 188 229 35 19 92 19 119 0z m-4152 -48 c-19 -45
-19 -88 -1 -132 l14 -33 -33 5 c-19 3 -47 1 -64 -5 l-31 -11 0 57 c0 31 -4 72
-9 90 l-10 32 42 0 c23 0 55 8 72 19 17 10 31 17 33 16 1 -1 -5 -18 -13 -38z
m4565 -9 c0 -16 -3 -19 -11 -11 -6 6 -8 16 -5 22 11 17 16 13 16 -11z m-5601
-333 c21 -68 22 -78 14 -310 l-8 -240 -48 415 c-27 228 -51 429 -53 445 -2 17
13 -31 34 -105 21 -74 49 -166 61 -205z m3580 311 c34 -18 344 -342 339 -355
-1 -5 -79 -91 -173 -190 -174 -186 -219 -221 -283 -221 -69 0 -106 27 -267
196 -86 90 -155 168 -153 174 5 16 313 305 366 344 50 36 106 65 130 66 7 0
25 -6 41 -14z m-2720 -65 c12 -38 21 -75 21 -82 0 -8 -19 -53 -42 -101 l-41
-88 -44 63 c-69 97 -68 90 -23 142 22 25 53 66 70 90 17 25 33 45 35 45 1 0
12 -31 24 -69z m4692 -8 c2 -69 -3 -97 -23 -145 -33 -77 -41 -78 -82 -8 -20
34 -36 63 -36 65 0 6 125 125 133 125 4 0 7 -17 8 -37z m64 -68 l10 -73 -32
-4 c-30 -4 -32 -2 -25 22 4 14 7 55 7 92 0 60 2 66 15 52 8 -8 20 -48 25 -89z
m56 51 c-18 -34 -20 -35 -26 -15 -6 17 -1 27 16 40 13 10 25 17 26 15 2 -1 -6
-19 -16 -40z m-3043 -6 c23 -10 45 -26 48 -35 9 -23 -57 -204 -106 -289 -104
-181 -243 -316 -415 -401 -86 -42 -229 -85 -287 -85 -26 0 -27 1 -16 33 18 53
87 153 223 322 258 321 363 440 410 461 42 19 93 17 143 -6z m1728 -25 c39
-23 125 -126 211 -255 l31 -45 -58 -70 c-84 -102 -130 -142 -179 -150 -65 -11
-102 15 -233 160 l-116 129 91 100 c100 107 158 156 190 156 11 0 39 -11 63
-25z m-4243 -45 c22 -34 23 -37 8 -82 -8 -27 -18 -48 -22 -48 -7 0 -19 85 -19
139 0 38 0 38 33 -9z m-54 -171 c-15 -15 -17 -11 -27 55 -6 39 -14 81 -17 93
-6 18 -4 21 14 16 14 -4 23 1 28 13 5 12 10 -16 13 -71 4 -74 2 -93 -11 -106z
m959 147 c36 -19 119 -105 372 -386 116 -129 220 -252 231 -273 l20 -39 -33 7
c-51 10 -195 81 -262 129 -157 113 -299 302 -390 519 -15 37 -15 38 7 47 12 5
23 9 25 9 2 1 15 -5 30 -13z m1820 -107 l101 -106 -127 -125 c-98 -98 -136
-128 -167 -137 -49 -13 -51 -13 -95 -1 -68 19 -68 21 -5 106 62 86 147 252
167 327 7 26 15 46 18 45 3 -2 52 -51 108 -109z m2572 23 l41 -73 -28 -37
c-153 -206 -358 -461 -378 -470 -76 -35 -106 -10 -239 191 -62 94 -121 186
-131 203 l-17 31 92 117 c70 88 97 115 109 110 152 -67 330 -71 451 -11 25 13
48 20 52 17 3 -3 25 -38 48 -78z m-4692 -16 c28 -46 52 -88 52 -94 0 -5 -19
-52 -43 -103 -24 -52 -74 -169 -111 -261 -74 -181 -93 -211 -134 -206 -43 5
-108 105 -297 458 l-67 125 16 64 c9 36 18 67 21 69 3 3 24 -13 48 -35 113
-104 275 -94 408 27 24 21 46 39 49 39 3 1 29 -37 58 -83z m224 -4 c15 -37 53
-110 83 -162 61 -102 60 -110 -7 -110 -46 0 -81 28 -144 117 l-47 65 39 79
c21 44 40 79 44 79 3 0 17 -31 32 -68z m4692 -1 c9 -10 26 -49 36 -87 l20 -69
-21 -17 c-25 -21 -72 -24 -86 -5 -6 6 -25 40 -44 74 l-33 62 29 31 c33 35 73
39 99 11z m-88 -224 c20 -57 17 -144 -7 -197 -20 -45 -267 -457 -298 -499 -16
-20 -23 -22 -65 -16 -48 8 -49 9 -78 72 -28 59 -30 71 -26 147 5 95 17 121
120 252 34 45 112 148 172 229 l109 147 29 -47 c17 -27 36 -66 44 -88z m-5451
28 c1 -65 -2 -84 -12 -81 -7 3 -16 0 -20 -7 -9 -14 -21 54 -22 121 -1 38 1 43
18 37 11 -3 22 -1 26 5 3 5 7 10 8 10 1 0 2 -38 2 -85z m3945 13 c156 -172
200 -240 200 -311 0 -53 -19 -82 -157 -235 l-97 -107 -145 3 -146 3 -38 42
c-60 67 -81 114 -81 182 0 36 6 72 16 90 17 31 364 405 376 405 4 0 36 -32 72
-72z m-3866 -65 c32 -65 101 -191 153 -281 53 -90 102 -184 109 -209 15 -49
17 -181 4 -223 -6 -22 -20 1 -100 165 -114 236 -160 338 -200 452 -31 88 -51
213 -34 213 5 0 36 -53 68 -117z m673 59 c67 -101 78 -131 78 -222 l0 -86 -96
-159 c-53 -88 -113 -193 -135 -233 -43 -81 -39 -81 -91 6 -61 103 -52 167 64
432 126 290 135 310 142 310 3 0 20 -21 38 -48z m2298 -124 c81 -84 156 -170
166 -190 25 -48 25 -130 0 -183 -11 -22 -40 -61 -65 -87 l-45 -48 -127 0 -127
0 -94 93 c-52 50 -103 109 -114 129 -21 41 -25 120 -9 163 12 33 238 275 256
275 6 0 78 -69 159 -152z m1623 -85 c146 -233 154 -259 106 -349 -49 -92 -93
-144 -122 -144 -15 0 -32 4 -37 8 -25 18 -237 294 -250 326 -20 48 -18 122 4
173 11 23 50 80 87 126 l68 85 22 -31 c11 -18 67 -105 122 -194z m908 145 c-9
-20 -16 -58 -18 -87 -3 -48 -5 -51 -30 -51 -17 0 -33 -9 -47 -27 l-20 -28 15
53 c9 29 14 73 12 97 -3 43 -3 43 33 49 20 3 42 13 49 21 20 24 22 12 6 -27z
m83 -150 c58 -189 91 -325 91 -369 0 -17 4 -28 9 -25 5 3 14 -1 21 -10 7 -8
20 -12 28 -9 12 4 13 -1 8 -27 -3 -17 -9 -56 -13 -85 -6 -51 -7 -53 -24 -37
-16 14 -18 28 -15 83 2 36 2 51 -1 34 -2 -18 -7 -33 -11 -33 -4 0 -18 39 -30
87 -13 48 -48 155 -79 238 -46 124 -56 161 -56 215 0 59 10 117 18 108 2 -2
27 -78 54 -170z m-5722 70 c-2 -18 -4 -4 -4 32 0 36 2 50 4 33 2 -18 2 -48 0
-65z m991 7 l47 0 1 -55 c0 -31 4 -68 8 -84 7 -27 6 -27 -16 -12 -33 24 -54
20 -83 -16 -15 -18 -25 -25 -21 -16 3 10 8 39 12 65 5 41 1 56 -25 105 l-30
58 30 -23 c22 -15 45 -22 77 -22z m5031 -26 c-9 -60 -113 -375 -131 -396 -16
-19 -36 -16 -49 8 -11 22 -109 402 -109 426 0 7 17 -5 37 -28 44 -49 81 -69
127 -69 42 0 86 34 111 86 9 19 18 34 20 32 2 -2 -1 -28 -6 -59z m-4897 0 c36
-49 166 -157 246 -204 40 -24 112 -56 158 -71 l86 -27 -7 -36 c-6 -36 -45
-122 -68 -152 -9 -12 -36 -19 -88 -24 l-76 -7 -97 122 c-194 245 -226 310
-200 408 8 30 19 28 46 -9z m-1060 4 c9 -10 60 -117 113 -238 54 -121 119
-264 146 -318 34 -67 46 -99 37 -101 -7 -3 -56 -16 -108 -31 -52 -14 -122 -41
-156 -59 l-61 -32 -21 175 c-19 165 -20 188 -7 381 12 197 19 240 35 240 4 0
14 -8 22 -17z m4307 -83 c-6 -25 -8 -63 -4 -85 l5 -40 -67 0 -68 0 0 81 0 81
45 -5 c25 -2 56 1 70 6 14 5 26 9 27 8 1 -1 -3 -22 -8 -46z m-1953 5 c20 -49
18 -121 -6 -169 -12 -23 -62 -85 -113 -138 l-92 -97 -132 -3 c-150 -2 -144 -5
-224 95 -50 62 -50 77 -2 77 131 0 373 110 503 228 25 23 46 41 48 42 2 0 10
-16 18 -35z m168 -2 l53 5 -8 -41 c-4 -23 -6 -52 -3 -64 2 -13 6 -34 9 -48 5
-23 4 -24 -26 -13 -17 6 -54 8 -82 5 l-52 -5 0 88 0 87 28 -10 c16 -5 53 -7
81 -4z m1016 -6 c0 -2 -12 -14 -27 -28 l-28 -24 24 28 c23 25 31 32 31 24z
m2014 -28 c14 -11 26 -31 26 -43 0 -23 41 -150 80 -246 12 -30 35 -89 50 -131
l29 -76 -24 -50 -23 -50 -107 28 c-59 15 -175 40 -258 55 -84 15 -154 28 -156
30 -1 1 49 85 112 186 63 101 122 197 130 213 21 38 45 66 77 88 31 21 32 21
64 -4z m381 -96 c-8 -71 -47 -232 -81 -335 -27 -83 -49 -113 -40 -56 3 18 7
53 10 78 6 42 107 369 115 370 2 0 0 -26 -4 -57z m-4203 -3 l-25 -50 -51 0
c-58 0 -71 6 -78 36 -5 19 -1 21 51 20 48 -1 94 15 127 43 1 1 -10 -21 -24
-49z m1696 5 c-5 -22 -7 -61 -4 -86 l6 -47 -40 10 c-26 7 -53 7 -77 1 l-38
-10 0 86 0 86 81 0 81 0 -9 -40z m-2433 3 c19 -18 84 -98 145 -178 l110 -144
-221 -23 c-121 -12 -252 -27 -289 -32 -132 -21 -129 -29 -49 115 159 288 220
340 304 262z m3826 -44 c29 -26 88 -35 128 -18 33 14 34 14 19 -3 -35 -40 -50
-86 -44 -129 5 -43 5 -43 -20 -34 -14 6 -37 10 -52 10 -26 0 -27 1 -27 63 0
37 -7 75 -17 95 -18 35 -14 40 13 16z m-494 -35 c25 -24 204 -242 200 -244 -3
-2 -361 23 -470 32 l-88 8 83 89 c115 124 151 149 206 143 26 -3 53 -14 69
-28z m-1793 -8 c48 -12 86 -39 160 -118 l59 -63 -259 0 -258 0 74 76 c70 71
134 114 170 114 8 0 32 -5 54 -9z m-862 -27 c38 -5 48 -11 60 -38 9 -17 32
-52 52 -79 41 -53 41 -53 24 -54 -7 -1 -71 -4 -143 -8 l-130 -7 38 38 c35 36
41 39 95 39 48 0 63 -5 96 -30 41 -31 40 -28 -7 41 -31 46 -72 60 -129 43 -45
-13 -44 -13 -40 26 5 38 8 39 84 29z m-1224 -63 c-8 -30 -8 -56 -1 -87 9 -40
9 -44 -9 -44 -11 0 -27 -4 -37 -10 -16 -8 -19 -3 -25 60 -3 37 -8 75 -11 82
-4 11 2 15 25 15 17 0 38 7 47 16 23 22 24 19 11 -32z m2968 -14 c27 -15 84
-64 84 -71 0 -3 -71 -6 -157 -6 l-157 0 28 29 c16 17 43 37 60 45 37 19 113
20 142 3z m2473 -221 l-23 -197 -25 25 -25 26 44 175 c24 96 46 173 47 171 2
-2 -6 -92 -18 -200z m-956 92 c20 -22 36 -43 34 -44 -6 -7 -217 19 -217 26 0
11 44 48 70 59 39 16 72 4 113 -41z m-4451 -65 c27 -24 23 -30 -32 -37 -28 -4
-57 -9 -65 -12 -22 -9 -19 18 5 44 25 26 66 29 92 5z m5275 -139 c-3 -4 -13
-4 -22 0 -13 5 -14 10 -4 28 l12 23 10 -23 c6 -12 7 -25 4 -28z m43 -6 c0 -26
-24 -18 -28 10 -3 16 1 20 12 16 9 -3 16 -15 16 -26z"/>
</g>
</svg>
