<?xml version="1.0" standalone="no"?>
<!DOCTYPE svg PUBLIC "-//W3C//DTD SVG 20010904//EN"
 "http://www.w3.org/TR/2001/REC-SVG-20010904/DTD/svg10.dtd">
<svg version="1.0" xmlns="http://www.w3.org/2000/svg"
 width="1280.000000pt" height="1050.000000pt" viewBox="0 0 1280.000000 1050.000000"
 preserveAspectRatio="xMidYMid meet">
<metadata>
Created by potrace 1.15, written by Peter Selinger 2001-2017
</metadata>
<g transform="translate(0.000000,1050.000000) scale(0.100000,-0.100000)"
fill="#000000" stroke="none">
<path d="M6650 10491 c-118 -38 -200 -148 -200 -266 0 -94 62 -201 146 -255
l42 -27 -137 1 c-134 1 -138 0 -177 -27 -68 -46 -88 -94 -94 -221 l-5 -109
-65 -22 c-177 -60 -317 -169 -370 -288 -23 -52 -21 -51 -205 -62 -238 -14
-555 -55 -820 -106 -1140 -219 -2145 -700 -2863 -1371 l-122 -115 -52 13 c-29
8 -91 14 -138 15 -78 0 -202 15 -155 18 34 2 123 69 160 119 50 69 68 138 63
232 -8 141 -83 252 -215 317 -70 34 -82 37 -162 37 -76 0 -94 -4 -153 -32
-102 -49 -165 -133 -190 -256 -29 -134 45 -293 175 -377 l60 -39 -154 7 c-144
5 -157 4 -205 -16 -59 -25 -103 -68 -134 -127 -16 -33 -21 -61 -22 -133 l-1
-91 -71 -39 c-236 -130 -445 -340 -530 -533 -29 -66 -56 -188 -56 -255 0 -173
120 -366 295 -478 111 -71 303 -140 448 -160 38 -6 47 -11 43 -24 -3 -9 -10
-43 -15 -76 -137 -782 23 -1586 456 -2300 441 -727 1139 -1343 2018 -1782 252
-126 527 -242 811 -341 l138 -48 32 -105 c86 -285 220 -508 426 -705 572 -548
1458 -617 2134 -168 218 146 407 350 540 584 31 55 58 100 60 100 23 0 311 47
454 74 700 133 1351 367 1902 682 1084 620 1800 1533 2012 2564 24 120 50 312
62 470 l5 75 127 1 c370 5 638 128 777 359 53 88 69 153 69 280 0 86 -5 126
-23 185 -29 94 -88 214 -149 299 -65 92 -205 235 -300 306 -78 58 -80 62 -87
110 -13 96 -74 183 -158 226 -35 18 -137 32 -307 41 l-45 3 46 21 c67 31 121
84 154 151 25 50 29 69 29 143 0 65 -5 98 -23 142 -45 114 -156 203 -287 231
-139 29 -295 -54 -357 -192 -33 -71 -30 -197 5 -273 38 -82 72 -122 142 -169
l61 -41 -75 8 c-41 4 -82 10 -92 13 -9 3 -61 74 -116 156 -704 1052 -1995
1868 -3493 2209 -22 5 -27 13 -32 51 -19 134 -147 276 -341 376 l-89 47 2 76
c5 156 -36 244 -132 290 -42 20 -74 26 -171 32 l-119 7 38 18 c75 37 124 100
145 187 30 127 -39 265 -163 329 -53 26 -162 39 -207 24z m-420 -1235 c0 -152
12 -201 63 -254 58 -61 88 -70 268 -81 476 -30 533 -30 586 -2 88 44 107 91
108 263 0 76 3 138 6 138 15 0 102 -104 119 -143 26 -57 26 -139 0 -193 -50
-102 -192 -189 -366 -226 -85 -17 -123 -19 -264 -15 -209 7 -318 33 -472 114
-178 93 -259 244 -203 380 16 40 124 153 146 153 5 0 9 -57 9 -134z m-434
-252 c70 -148 268 -291 513 -370 54 -17 81 -31 81 -41 0 -8 -25 -186 -55 -395
-30 -209 -55 -383 -55 -388 0 -5 -24 -20 -54 -33 -66 -31 -124 -87 -156 -152
-21 -42 -25 -65 -25 -145 0 -82 4 -103 26 -150 14 -30 47 -79 73 -108 70 -76
62 -87 -61 -78 -120 8 -175 -8 -239 -68 -26 -25 -75 -56 -121 -76 -206 -90
-372 -223 -468 -375 -21 -33 -39 -61 -40 -62 -1 -2 -204 15 -451 37 -247 22
-548 49 -669 60 -121 11 -499 44 -839 75 -341 30 -622 55 -625 55 -3 0 -6 37
-7 83 -1 45 -7 102 -13 127 -58 205 -243 377 -496 460 -38 13 -72 25 -74 26
-13 10 273 278 434 407 636 510 1481 884 2385 1056 295 56 621 97 872 109 36
2 38 0 64 -54z m2339 -239 c747 -232 1457 -619 2000 -1088 292 -252 600 -607
783 -903 l50 -80 -91 -18 c-367 -70 -593 -277 -623 -571 -5 -44 -11 -65 -20
-65 -7 0 -368 32 -801 70 -1053 94 -1078 96 -1456 130 -181 17 -332 30 -337
30 -4 0 -15 32 -24 71 -37 152 -111 272 -243 400 -106 102 -196 163 -340 231
-59 28 -122 62 -140 75 -47 36 -104 50 -236 58 -65 4 -119 11 -122 15 -3 4 9
13 26 20 80 34 160 151 174 257 12 89 -31 214 -99 291 l-32 37 47 410 c27 226
48 413 49 418 0 4 60 7 133 7 330 0 608 95 761 261 31 33 56 64 56 69 0 10
288 -64 485 -125z m-6008 -1652 c153 -149 153 -372 -1 -572 -218 -283 -695
-465 -1109 -422 -216 22 -379 86 -482 188 -135 132 -156 300 -59 483 34 66
155 210 175 210 5 0 8 -81 7 -182 -1 -101 2 -199 6 -218 18 -79 91 -160 179
-198 29 -12 167 -22 622 -43 197 -9 270 -9 302 0 63 17 124 69 155 131 l28 55
0 343 0 343 62 -33 c34 -18 86 -56 115 -85z m3665 -1036 c43 -95 128 -159 228
-172 69 -8 666 -47 740 -47 106 -1 190 49 231 137 17 36 19 70 19 358 0 178 4
317 9 317 16 0 122 -111 155 -163 60 -95 79 -160 79 -272 0 -80 -4 -112 -22
-157 -86 -220 -306 -373 -613 -424 -140 -23 -345 -15 -478 19 -182 47 -315
116 -425 219 -128 119 -185 241 -185 392 0 143 45 244 159 356 l76 75 5 -300
c4 -256 8 -306 22 -338z m-2861 418 c217 -20 493 -44 614 -55 121 -11 474 -42
785 -70 311 -28 617 -55 680 -61 63 -5 121 -12 128 -14 8 -3 12 -26 12 -68 0
-82 21 -163 69 -262 113 -237 342 -421 672 -539 90 -33 94 -36 92 -63 -1 -15
-35 -263 -75 -549 l-72 -522 -75 5 c-254 17 -470 -144 -520 -385 -46 -224 77
-500 281 -633 73 -47 59 -52 -94 -33 -244 30 -273 32 -328 22 -156 -29 -276
-159 -295 -319 -6 -56 -7 -58 -84 -123 -189 -161 -368 -418 -456 -650 -31 -83
-71 -227 -80 -289 -8 -59 4 -61 -220 28 -573 226 -1084 528 -1510 890 -128
108 -360 340 -472 472 -450 526 -723 1129 -799 1758 -20 170 -20 501 0 660 9
66 16 123 16 127 0 4 26 10 58 13 488 56 981 307 1207 614 33 44 63 81 66 81
4 0 184 -16 400 -35z m8074 -855 c23 -67 97 -150 159 -175 41 -17 89 -23 286
-35 91 -6 233 -15 315 -21 249 -17 285 -16 345 17 63 34 107 94 120 165 6 28
10 131 10 228 0 199 -3 195 70 74 68 -111 84 -168 85 -288 0 -99 -3 -116 -27
-167 -90 -192 -313 -290 -631 -275 -299 14 -576 121 -806 311 -150 123 -264
297 -292 444 -41 213 64 386 289 478 l57 23 6 -377 c3 -207 9 -388 14 -402z
m-3062 330 c183 -16 584 -52 892 -80 308 -27 762 -68 1010 -90 247 -22 455
-40 462 -40 7 0 26 -26 42 -57 154 -303 526 -597 938 -743 l108 -38 -3 -81
c-4 -140 -55 -397 -117 -591 -90 -287 -211 -535 -390 -805 -127 -191 -241
-331 -425 -518 -674 -691 -1624 -1160 -2773 -1372 -76 -14 -141 -25 -145 -25
-4 0 -7 69 -8 153 -3 422 -162 794 -475 1106 -217 217 -542 390 -827 441 -40
7 -72 18 -72 23 0 6 24 36 54 67 29 31 65 79 79 106 80 159 74 361 -17 529
l-32 60 18 160 c9 88 40 367 68 620 27 253 52 476 56 496 l5 36 152 12 c294
22 520 95 723 232 140 94 275 254 320 378 10 28 19 51 21 51 2 0 153 -13 336
-30z m-1062 -3681 c186 -320 198 -723 31 -1058 -230 -460 -738 -716 -1262
-637 -387 59 -705 289 -864 627 -85 179 -119 385 -98 579 13 117 49 254 87
335 l23 50 1 -225 c1 -266 9 -321 57 -418 68 -138 206 -239 359 -262 152 -23
1198 -150 1235 -150 21 0 68 9 106 21 57 18 77 31 129 82 44 44 69 80 86 122
l24 60 3 495 3 495 20 -25 c11 -13 38 -54 60 -91z"/>
</g>
</svg>
